# xmcd
#
# Track frame offsets:
#	150
#	15627
#	30034
#	48105
#	66044
#	79734
#	99373
#	113228
#	131192
#	149145
#	167443
#	184240
#
# Disc length: 2710 seconds
#
# Revision: 2
# Processed by: cddbd v1.5.2PL0 Copyright (c) Steve Scherf et al.
# Submitted via: audiograbber 1.83.01
#
DISCID=970a940c
DTITLE=George Fox - Canadian
DYEAR=2003
DGENRE=Country
TTITLE0=I'm Canadian
TTITLE1=North West Mounted Police
TTITLE2=High-Toned Years
TTITLE3=Billy Green
TTITLE4=Try Me Out
TTITLE5=A Kind Word
TTITLE6=She's Gold
TTITLE7=Wayne the 99er
TTITLE8=Alberta Roots
TTITLE9=Real Canadian Town
TTITLE10=Tatanga Mani (Walking Buffalo)
TTITLE11=I Wouldn't Have Missed It
EXTD=
EXTT0=
EXTT1=
EXTT2=
EXTT3=
EXTT4=
EXTT5=
EXTT6=
EXTT7=
EXTT8=
EXTT9=
EXTT10=
EXTT11=
PLAYORDER=
